<?xml version="1.0" encoding="UTF-8"?>
<svg id="Layer_2" data-name="Layer 2" xmlns="http://www.w3.org/2000/svg" viewBox="0 0 276.16 320.02">
  <defs>
    <style>
      .cls-1 {
        fill: #1b7339;
      }

      .cls-1, .cls-2, .cls-3 {
        stroke-width: 0px;
      }

      .cls-2 {
        fill: #97a995;
      }

      .cls-3 {
        fill: #fff;
      }
    </style>
  </defs>
  <g id="Layer_1-2" data-name="Layer 1">
    <path class="cls-1" d="M83.34,106.43c0,27.83-.09,55.65.09,83.48.03,4.6-1.34,6.04-5.97,5.99-19.49-.22-38.99-.19-58.48-.02-4.13.04-5.49-1.28-5.47-5.44.12-43.99.09-87.98.03-131.97,0-2.95.62-4.91,3.49-6.39,20.56-10.61,41.08-21.32,61.52-32.17,3.99-2.12,4.9-1.39,4.87,3.04-.15,27.83-.07,55.65-.07,83.48ZM46.29,102.88c.74-2.96-1.34-2.79-3.48-2.91-2.48-.14-2.95,1.04-3.07,3.23-.16,2.98,1.49,3,3.68,3.05,2.39.06,3.36-.81,2.87-3.37ZM53.56,106.17c2,.14,3.66.17,3.6-2.63-.05-2.31-.38-3.68-3.21-3.61-2.44.06-3.53.6-3.5,3.3.03,2.45.9,3.28,3.11,2.93ZM57.06,124.13c.46-2.87-1.21-3.14-3.51-3.18-2.42-.04-2.97.94-3.09,3.19-.16,2.94,1.36,3.07,3.59,3.1,2.32.04,3.44-.7,3.01-3.12ZM46.34,113.82c.41-2.27-.4-3.3-2.86-3.2-2.12.09-3.9-.04-3.73,3,.12,2.13.47,3.4,3.01,3.29,2.16-.09,4.09-.05,3.58-3.08ZM57.06,113.8c.39-2.32-.53-3.27-2.95-3.18-2.14.08-3.85,0-3.66,3.03.14,2.17.51,3.34,3.02,3.26,2.22-.07,4.04-.16,3.58-3.11ZM42.97,79.06c-2.91-.52-3.13,1.21-3.21,3.48-.1,2.81,1.62,2.61,3.51,2.7,2.23.11,3.21-.49,3.19-3-.02-2.66-.99-3.61-3.49-3.18ZM53.54,79.12c-2.66-.83-2.96.85-3.07,3.23-.12,2.63,1.19,2.92,3.28,2.89,2.01-.02,3.48-.11,3.41-2.81-.06-2.4-.54-3.89-3.62-3.32ZM46.29,123.88c.74-2.96-1.34-2.79-3.48-2.91-2.48-.14-2.95,1.04-3.07,3.23-.16,2.98,1.49,3,3.68,3.05,2.39.06,3.36-.81,2.87-3.37ZM54,137.75c2.56.79,3.08-.73,3.16-3.18.09-2.54-1.1-3.02-3.27-2.95-1.93.07-3.53-.03-3.42,2.75.09,2.33.39,3.95,3.53,3.37ZM46.33,134.56c.53-2.68-1.06-2.86-3.14-2.95-2.48-.1-3.54.6-3.45,3.29.08,2.44,1.08,2.99,3.3,3.02,2.52.04,3.78-.7,3.29-3.36ZM50.58,92.63c-.52,2.75.93,3.29,3.35,3.3,2.3,0,3.15-.71,3.24-3.08.11-2.77-1.12-3.28-3.52-3.22-2.16.05-3.6.41-3.07,3.01ZM46.34,92.47c.52-2.81-1.3-2.71-3.25-2.84-2.62-.18-3.39.84-3.34,3.39.05,2.56,1.31,2.83,3.4,2.91,2.66.11,3.62-.95,3.19-3.45ZM67.64,82.41c.24-2.11-.03-3.57-2.77-3.43-2.11.11-3.43.32-3.38,2.95.05,2.19.37,3.41,2.95,3.29,2.04-.1,3.77-.06,3.19-2.81ZM67.59,92.6c.65-2.18-.36-3-2.8-2.95-2.12.05-3.41.29-3.3,2.94.09,2.21.51,3.33,3.04,3.3,2.26-.03,3.56-.5,3.05-3.29ZM35.56,124.34c.27-1.93-.18-3.28-2.76-3.36-2.59-.08-3.49.87-3.43,3.43.05,2.22.62,3.34,3.07,3.31,2.28-.04,3.45-.81,3.12-3.37ZM53.69,142.96c-2-.37-3.14.32-3.2,2.83-.06,2.69,1.12,3.35,3.56,3.34,2.37-.01,3.16-.96,3.18-3.24.02-2.44-1.08-3.26-3.54-2.94ZM43.29,149.06c2.38.31,3.05-.9,3.13-3.16.11-2.99-1.65-2.97-3.8-3.04-2.59-.08-2.92,1.34-2.92,3.43,0,2.6,1.51,2.96,3.6,2.77ZM64.53,142.94c-2.52-.35-3.04,1.04-3.02,3.21.02,2.06.76,2.93,2.88,2.96,2.25.04,3.27-.69,3.26-3.08,0-2.27-.73-3.44-3.12-3.09ZM61.61,135.26c-.45,2.15.85,2.64,2.85,2.73,2.38.11,3.23-.83,3.18-3.19-.04-2.13-.82-2.91-2.95-2.94-2.36-.03-3.45.81-3.08,3.4ZM35.43,82.14c.46-2.49-.72-3.1-3.04-3.12-2.37-.01-3.14.76-3.18,3.14-.04,2.5.94,3.03,3.21,3.03,2.3,0,3.53-.55,3.01-3.05ZM64.71,121.06c-2.37-.32-3.24.76-3.2,3.1.03,2.1.8,2.98,2.93,2.95,1.88-.03,3.2-.34,3.19-2.66-.01-2.06-.26-3.7-2.91-3.39ZM35.57,103.31c.27-2.21-.52-3.32-2.95-3.32-2.25,0-3.31.67-3.22,3.08.06,1.94.48,3.12,2.73,3.05,1.95-.06,3.73-.09,3.45-2.8ZM32.43,137.88c2.34.35,3.18-.67,3.2-3.01.03-2.49-1.13-2.99-3.3-2.98-2.07,0-2.91.7-2.91,2.84,0,2.19.5,3.54,3.01,3.15ZM35.43,92.92c.41-2.25-.28-3.35-2.84-3.22-2.03.1-3.51.11-3.37,2.85.11,2.15.39,3.42,3,3.3,2.09-.1,3.71-.2,3.22-2.93ZM29.51,145.97c-.37,2.46.86,3.1,3.13,3.12,2.54.03,2.97-1.23,2.98-3.38.01-2.21-.96-2.79-2.99-2.82-2.27-.04-3.51.61-3.12,3.08ZM67.54,113.36c.38-2.19-1.04-2.52-2.96-2.61-2.45-.11-3.09,1.07-3.07,3.3.02,2.21,1.07,2.77,3.06,2.82,2.45.06,3.28-1.06,2.97-3.51ZM32.77,110.82c-2.13-.25-3.47.3-3.37,2.85.08,1.83.25,3.24,2.59,3.19,1.89-.05,3.67.07,3.63-2.66-.03-2.02-.21-3.69-2.86-3.37ZM67.55,102.97c.45-2.28-.82-2.97-3.09-2.97-2.1,0-2.91.82-2.95,2.93-.04,2.33.84,3.25,3.19,3.19,2.09-.05,3.11-.79,2.84-3.15Z"/>
    <g>
      <path class="cls-3" d="M220.61,299.09h51.5c0,.17,0,.34.01.51h-51.43c-.03-.17-.05-.34-.08-.51Z"/>
      <path class="cls-3" d="M55.42,299.83H4.04c0-.16,0-.32-.01-.48h51.42c0,.16-.02.32-.03.48Z"/>
    </g>
    <rect class="cls-3" x="101.84" width="69.62" height="197.06"/>
    <polygon class="cls-1" points="13.52 53.97 13.52 195.9 83.42 195.9 83.42 16.89 13.52 53.97"/>
    <path class="cls-3" d="M35.43,82.14c.51,2.5-.72,3.05-3.01,3.05-2.27,0-3.25-.53-3.21-3.03.04-2.37.81-3.15,3.18-3.14,2.32.01,3.49.63,3.04,3.12Z"/>
    <polygon class="cls-1" points="258.95 78.11 258.95 195.54 189.05 195.54 189.05 47.43 258.95 78.11"/>
    <g>
      <path class="cls-3" d="M15.16,238.98v24.12h-4.36v-24.12H1.16v-3.48h23.64v3.48h-9.64Z"/>
      <path class="cls-3" d="M44.96,252.46c0,6.2-3.64,11.2-10.76,11.2s-10.76-5-10.76-11.2,3.6-11.16,10.76-11.16,10.76,4.96,10.76,11.16ZM40.28,252.46c0-4.8-2.24-7.96-6.08-7.96s-6.12,3.16-6.12,7.96,2.24,8,6.12,8,6.08-3.2,6.08-8Z"/>
      <path class="cls-3" d="M69.96,252.1c0,7.8-4.8,11.56-10.28,11.56-1.76,0-3.96-.48-5.04-1.32l-1.4-2.12v10.72h-4.4v-29.08h4.4v3.32l1.6-2.28c1.2-1,3.4-1.6,5.56-1.6,6.08,0,9.56,4.6,9.56,10.8ZM65.32,252.5c0-4.6-2.12-8-5.96-8-3.28,0-6.12,2.08-6.12,7.76v1.08c0,5.2,3.12,7.12,5.92,7.12,3.52,0,6.16-2.68,6.16-7.96Z"/>
      <path class="cls-3" d="M103.23,243.86c0,4.88-3.28,7.68-7.28,8.2-1.28.16-2.28.16-3.76.16h-4.64v10.88h-4.4v-27.6h9.04c1.48,0,2.48,0,3.76.16,4.32.56,7.28,3.32,7.28,8.2ZM98.6,243.86c0-2.92-1.56-4.28-3.48-4.64-.72-.12-1.68-.16-2.8-.16h-4.76v9.6h4.76c1.12,0,2.08-.04,2.8-.16,1.92-.36,3.48-1.72,3.48-4.64Z"/>
      <path class="cls-3" d="M117.48,241.58v3.44c-4.04-.28-6.56,1.8-6.56,7.04v11.04h-4.4v-21.24h4.4v3.6l1.8-2.92c.96-.76,2.2-1.2,3.28-1.2.6,0,1.04.08,1.48.24Z"/>
      <path class="cls-3" d="M140.19,252.46c0,6.2-3.64,11.2-10.76,11.2s-10.76-5-10.76-11.2,3.6-11.16,10.76-11.16,10.76,4.96,10.76,11.16ZM135.52,252.46c0-4.8-2.24-7.96-6.08-7.96s-6.12,3.16-6.12,7.96,2.24,8,6.12,8,6.08-3.2,6.08-8Z"/>
      <path class="cls-3" d="M165.19,252.1c0,7.8-4.8,11.56-10.28,11.56-1.76,0-3.96-.48-5.04-1.32l-1.4-2.12v10.72h-4.4v-29.08h4.4v3.32l1.6-2.28c1.2-1,3.4-1.6,5.56-1.6,6.08,0,9.56,4.6,9.56,10.8ZM160.55,252.5c0-4.6-2.12-8-5.96-8-3.28,0-6.12,2.08-6.12,7.76v1.08c0,5.2,3.12,7.12,5.92,7.12,3.52,0,6.16-2.68,6.16-7.96Z"/>
      <path class="cls-3" d="M187.31,253.7h-15.24c.36,5.08,2.68,6.76,5.56,6.76,2.56,0,4.56-1.56,5-4.24h4.44c-.92,5.04-4.96,7.44-9.6,7.44-5.68,0-9.96-3.6-9.96-11.12,0-6.72,4.28-11.24,10.4-11.24s9.48,4.64,9.48,10.64c0,.4,0,1-.08,1.76ZM172.12,250.62h10.76c-.32-3.92-2.04-6.12-5.12-6.12s-5.16,2.04-5.64,6.12Z"/>
      <path class="cls-3" d="M202.55,241.58v3.44c-4.04-.28-6.56,1.8-6.56,7.04v11.04h-4.4v-21.24h4.4v3.6l1.8-2.92c.96-.76,2.2-1.2,3.28-1.2.6,0,1.04.08,1.48.24Z"/>
      <path class="cls-3" d="M210.96,256.22c0,.72,0,1.2.04,1.76.16,2.08.96,2.52,3.84,2.24v3.04c-1.12.16-2.16.24-3.24.24-3.32,0-4.76-1.24-4.96-4.04-.04-.72-.04-1.64-.04-2.84v-11.52h-3v-3.08h3v-5.08h4.36v5.08h4.16v3.08h-4.16v11.12Z"/>
      <path class="cls-3" d="M223.91,236.98c0,1.48-1.12,2.56-2.6,2.56s-2.56-1.08-2.56-2.56,1.08-2.52,2.56-2.52,2.6,1.08,2.6,2.52ZM219.12,263.1v-21.24h4.4v21.24h-4.4Z"/>
      <path class="cls-3" d="M247.35,253.7h-15.24c.36,5.08,2.68,6.76,5.56,6.76,2.56,0,4.56-1.56,5-4.24h4.44c-.92,5.04-4.96,7.44-9.6,7.44-5.68,0-9.96-3.6-9.96-11.12,0-6.72,4.28-11.24,10.4-11.24s9.48,4.64,9.48,10.64c0,.4,0,1-.08,1.76ZM232.15,250.62h10.76c-.32-3.92-2.04-6.12-5.12-6.12s-5.16,2.04-5.64,6.12Z"/>
      <path class="cls-3" d="M266.55,247.94h-4.48c-.44-2.24-1.76-3.56-3.92-3.56s-3.08,1.16-3.08,2.76c0,1.92,1.56,2.72,4.72,3.56,4.64,1.2,7.08,3.04,7.08,6.8,0,4.12-3.64,6.16-8.28,6.16s-8.2-2.12-8.8-6.92h4.44c.52,2.72,2.32,3.8,4.52,3.8,2.04,0,3.68-.88,3.68-2.72s-1.44-2.84-5.04-3.8c-3.88-1-6.76-2.64-6.76-6.36,0-3.96,3.12-6.36,7.84-6.36s7.6,2.76,8.08,6.64Z"/>
      <path class="cls-3" d="M91.79,311.1l-12.24-22.76c.12,3.16.16,6.72.16,9.56v13.2h-4.4v-27.6h6.2l12.36,22.92c-.08-3.12-.12-6.8-.12-9.64v-13.28h4.32l.04,27.6h-6.32Z"/>
      <path class="cls-3" d="M108.56,284.98c0,1.48-1.12,2.56-2.6,2.56s-2.56-1.08-2.56-2.56,1.08-2.52,2.56-2.52,2.6,1.08,2.6,2.52ZM103.76,311.1v-21.24h4.4v21.24h-4.4Z"/>
      <path class="cls-3" d="M133.31,305.82c0,1.32,0,2.96-.04,4.12-.24,6.44-4.24,9.68-10.64,9.68s-9.36-2.56-9.8-7.12l-.04-.4h4.32l.04.36c.28,2.28,2.24,3.84,5.52,3.84,3.84,0,6.04-2.08,6.2-5.88.04-.92.04-1.68.04-2.44v-.44l-1.6,2.32c-1.2.96-3.28,1.6-5.44,1.6-6.12,0-9.68-4.48-9.68-10.72,0-7.76,4.8-11.44,10.28-11.44,1.76,0,3.96.48,5.04,1.32l1.4,2.12v-2.88h4.4v15.96ZM128.92,300.5v-.92c0-5.16-3.12-7.08-5.96-7.08-3.48,0-6.12,2.56-6.12,7.84,0,4.6,2.12,7.92,5.92,7.92,3.32,0,6.16-2.08,6.16-7.76Z"/>
      <path class="cls-3" d="M157.15,301.7h-15.24c.36,5.08,2.68,6.76,5.56,6.76,2.56,0,4.56-1.56,5-4.24h4.44c-.92,5.04-4.96,7.44-9.6,7.44-5.68,0-9.96-3.6-9.96-11.12,0-6.72,4.28-11.24,10.4-11.24s9.48,4.64,9.48,10.64c0,.4,0,1-.08,1.76ZM141.96,298.62h10.76c-.32-3.92-2.04-6.12-5.12-6.12s-5.16,2.04-5.64,6.12Z"/>
      <path class="cls-3" d="M172.4,289.58v3.44c-4.04-.28-6.56,1.8-6.56,7.04v11.04h-4.4v-21.24h4.4v3.6l1.8-2.92c.96-.76,2.2-1.2,3.28-1.2.6,0,1.04.08,1.48.24Z"/>
      <path class="cls-3" d="M180.36,284.98c0,1.48-1.12,2.56-2.6,2.56s-2.56-1.08-2.56-2.56,1.08-2.52,2.56-2.52,2.6,1.08,2.6,2.52ZM175.56,311.1v-21.24h4.4v21.24h-4.4Z"/>
      <path class="cls-3" d="M197.44,308.02l-1.08,2.28c-1.44,1-3.28,1.36-5.28,1.36-3.76,0-6.84-2.16-6.84-6.12,0-4.72,3.76-7.28,11.8-7.28h1.36v-.52c0-.8,0-1.52-.08-2.32-.12-1.72-1.2-2.92-3.72-2.92s-3.88,1.44-4.12,4.08h-4.4c.28-4.64,3.76-7.28,8.6-7.28,5.48,0,7.64,2.32,8,5.92.08.88.12,2,.12,3v7.48c0,1.6.08,3.04.4,5.4h-4.36l-.4-3.08ZM197.4,303.14v-1.96c-5.16-.4-8.52.76-8.52,4,0,2.24,1.48,3.28,3.8,3.28,2.76,0,4.72-1.88,4.72-5.32Z"/>
    </g>
    <rect class="cls-3" x="29.21" y="79.02" width="6.34" height="6.17"/>
    <rect class="cls-2" x="138.9" y="65.23" width="6.34" height="6.17"/>
    <rect class="cls-2" x="150.26" y="65.23" width="6.34" height="6.17"/>
    <rect class="cls-2" x="138.9" y="76.51" width="6.34" height="6.17"/>
    <rect class="cls-2" x="150.26" y="76.51" width="6.34" height="6.17"/>
    <g>
      <rect class="cls-1" x="116.19" y="32.23" width="6.34" height="6.17"/>
      <rect class="cls-1" x="127.55" y="32.23" width="6.34" height="6.17"/>
      <rect class="cls-1" x="138.9" y="32.23" width="6.34" height="6.17"/>
      <rect class="cls-1" x="150.26" y="32.23" width="6.34" height="6.17"/>
      <rect class="cls-1" x="116.19" y="43.22" width="6.34" height="6.17"/>
      <rect class="cls-1" x="127.55" y="43.22" width="6.34" height="6.17"/>
      <rect class="cls-1" x="138.9" y="43.22" width="6.34" height="6.17"/>
      <rect class="cls-1" x="150.26" y="43.22" width="6.34" height="6.17"/>
      <rect class="cls-1" x="116.19" y="54.24" width="6.34" height="6.17"/>
      <rect class="cls-1" x="127.55" y="54.24" width="6.34" height="6.17"/>
      <rect class="cls-1" x="138.9" y="54.24" width="6.34" height="6.17"/>
      <rect class="cls-1" x="150.26" y="54.24" width="6.34" height="6.17"/>
      <rect class="cls-1" x="116.19" y="65.23" width="6.34" height="6.17"/>
      <rect class="cls-1" x="127.55" y="65.23" width="6.34" height="6.17"/>
      <rect class="cls-1" x="116.19" y="76.51" width="6.34" height="6.17"/>
      <rect class="cls-1" x="127.55" y="76.51" width="6.34" height="6.17"/>
      <rect class="cls-1" x="116.19" y="87.49" width="6.34" height="6.17"/>
      <rect class="cls-1" x="127.55" y="87.49" width="6.34" height="6.17"/>
    </g>
    <rect class="cls-2" x="138.9" y="87.49" width="6.34" height="6.17"/>
    <rect class="cls-2" x="150.26" y="87.49" width="6.34" height="6.17"/>
    <rect class="cls-2" x="116.19" y="98.47" width="6.34" height="6.17"/>
    <rect class="cls-2" x="127.55" y="98.47" width="6.34" height="6.17"/>
    <rect class="cls-2" x="138.9" y="98.47" width="6.34" height="6.17"/>
    <rect class="cls-2" x="150.26" y="98.47" width="6.34" height="6.17"/>
    <rect class="cls-3" x="39.94" y="79.02" width="6.34" height="6.17"/>
    <rect class="cls-3" x="50.67" y="79.02" width="6.34" height="6.17"/>
    <rect class="cls-3" x="61.41" y="79.02" width="6.34" height="6.17"/>
    <rect class="cls-3" x="204.91" y="96.55" width="6.34" height="6.17"/>
    <rect class="cls-3" x="204.91" y="107.09" width="6.34" height="6.17"/>
    <rect class="cls-3" x="204.91" y="117.51" width="6.34" height="6.17"/>
    <rect class="cls-3" x="215.67" y="107.09" width="6.34" height="6.17"/>
    <rect class="cls-3" x="226.38" y="117.51" width="6.34" height="6.17"/>
    <rect class="cls-3" x="237.14" y="117.51" width="6.34" height="6.17"/>
    <rect class="cls-3" x="237.32" y="107.09" width="6.34" height="6.17"/>
    <rect class="cls-3" x="237.32" y="96.55" width="6.34" height="6.17"/>
    <rect class="cls-3" x="204.91" y="128.17" width="6.34" height="6.17"/>
    <rect class="cls-3" x="237.32" y="128.17" width="6.34" height="6.17"/>
    <rect class="cls-2" x="215.7" y="96.55" width="6.34" height="6.17"/>
    <rect class="cls-2" x="215.7" y="117.51" width="6.34" height="6.17"/>
    <rect class="cls-2" x="226.38" y="96.55" width="6.34" height="6.17"/>
    <rect class="cls-2" x="215.7" y="128.2" width="6.34" height="6.17"/>
    <rect class="cls-2" x="226.38" y="128.2" width="6.34" height="6.17"/>
    <rect class="cls-3" x="204.91" y="139.04" width="6.34" height="6.17"/>
    <rect class="cls-3" x="237.32" y="139.04" width="6.34" height="6.17"/>
    <rect class="cls-2" x="215.7" y="139.07" width="6.34" height="6.17"/>
    <rect class="cls-2" x="226.38" y="139.07" width="6.34" height="6.17"/>
    <rect class="cls-3" x="204.91" y="149.95" width="6.34" height="6.17"/>
    <rect class="cls-3" x="237.32" y="149.95" width="6.34" height="6.17"/>
    <rect class="cls-2" x="215.7" y="149.98" width="6.34" height="6.17"/>
    <rect class="cls-2" x="226.38" y="149.98" width="6.34" height="6.17"/>
    <rect class="cls-2" x="204.91" y="160.83" width="6.34" height="6.17"/>
    <rect class="cls-2" x="237.32" y="160.83" width="6.34" height="6.17"/>
    <rect class="cls-2" x="215.7" y="160.86" width="6.34" height="6.17"/>
    <rect class="cls-2" x="226.38" y="160.86" width="6.34" height="6.17"/>
    <rect class="cls-2" x="226.38" y="107.11" width="6.34" height="6.17"/>
    <rect class="cls-3" x="29.21" y="89.48" width="6.34" height="6.17"/>
    <rect class="cls-3" x="39.94" y="89.48" width="6.34" height="6.17"/>
    <rect class="cls-3" x="50.67" y="89.48" width="6.34" height="6.17"/>
    <rect class="cls-3" x="61.41" y="89.48" width="6.34" height="6.17"/>
    <rect class="cls-2" x="29.21" y="100.05" width="6.34" height="6.17"/>
    <rect class="cls-3" x="39.94" y="100.05" width="6.34" height="6.17"/>
    <rect class="cls-3" x="50.67" y="100.05" width="6.34" height="6.17"/>
    <rect class="cls-2" x="61.41" y="100.05" width="6.34" height="6.17"/>
    <rect class="cls-2" x="29.21" y="110.54" width="6.34" height="6.17"/>
    <rect class="cls-3" x="39.94" y="110.54" width="6.34" height="6.17"/>
    <rect class="cls-3" x="50.67" y="110.54" width="6.34" height="6.17"/>
    <rect class="cls-2" x="61.41" y="110.54" width="6.34" height="6.17"/>
    <rect class="cls-2" x="29.21" y="121.07" width="6.34" height="6.17"/>
    <rect class="cls-3" x="39.94" y="121.07" width="6.34" height="6.17"/>
    <rect class="cls-3" x="50.67" y="121.07" width="6.34" height="6.17"/>
    <rect class="cls-2" x="61.41" y="121.07" width="6.34" height="6.17"/>
    <rect class="cls-2" x="29.21" y="131.6" width="6.34" height="6.17"/>
    <rect class="cls-3" x="39.94" y="131.6" width="6.34" height="6.17"/>
    <rect class="cls-3" x="50.67" y="131.6" width="6.34" height="6.17"/>
    <rect class="cls-2" x="61.41" y="131.6" width="6.34" height="6.17"/>
    <rect class="cls-2" x="29.21" y="142.13" width="6.34" height="6.17"/>
    <rect class="cls-3" x="39.94" y="142.13" width="6.34" height="6.17"/>
    <rect class="cls-3" x="50.67" y="142.13" width="6.34" height="6.17"/>
    <rect class="cls-2" x="61.41" y="142.13" width="6.34" height="6.17"/>
  </g>
</svg>